# xmcd
#
# Track frame offsets: 
#        300
#        17939
#        30562
#        41935
#        54997
#        67960
#        83533
#        95900
#        111142
#        121096
#        132324
#        148842
#        169682
#        180253
#        195599
#        219969
#        232336
#        264556
#
# Disc length: 3921 seconds
#
# Revision: 4
# Processed by: cddbd v1.5.2PL0 Copyright (c) Steve Scherf et al.
# Submitted via: ExactAudioCopy v0.95b4
#
DISCID=fe0f4d12
DTITLE=Original Artists - Soul Party
DYEAR=2004
DGENRE=Soul
TTITLE0=River Deep, Mountain High
TTITLE1=Harlem Shuffle
TTITLE2=If You Need Me
TTITLE3=Soul Man
TTITLE4=Spanish Harlem
TTITLE5=Knock On Wood
TTITLE6=Rescue Me
TTITLE7=Show And Tell
TTITLE8=It's In His Kiss
TTITLE9=Twist and Shout
TTITLE10=Hold On I'm Coming
TTITLE11=Heatwave
TTITLE12=LEE DORSEY - Ya Ya
TTITLE13=Your And Soul
TTITLE14=Love Has Finally Come At Last
TTITLE15=When A Man Loves A Woman
TTITLE16=Papa was a Rolling Stone
TTITLE17=Sexmachine
EXTD=
EXTT0=
EXTT1=
EXTT2=
EXTT3=
EXTT4=
EXTT5=
EXTT6=
EXTT7=
EXTT8=
EXTT9=
EXTT10=
EXTT11=
EXTT12=
EXTT13=
EXTT14=
EXTT15=
EXTT16=
EXTT17=
PLAYORDER=
